<?xml version="1.0" standalone="no"?>
<!DOCTYPE svg PUBLIC "-//W3C//DTD SVG 20010904//EN"
 "http://www.w3.org/TR/2001/REC-SVG-20010904/DTD/svg10.dtd">
<svg version="1.0" xmlns="http://www.w3.org/2000/svg"
 width="633.000000pt" height="633.000000pt" viewBox="0 0 633.000000 633.000000"
 preserveAspectRatio="xMidYMid meet">
<metadata>
Created by potrace 1.11, written by Peter Selinger 2001-2013
</metadata>
<g transform="translate(0.000000,633.000000) scale(0.100000,-0.100000)"
fill="#000000" stroke="none">
<path d="M2955 6324 c-263 -26 -403 -49 -565 -90 -1092 -280 -1946 -1105
-2265 -2187 -86 -294 -119 -536 -119 -882 0 -279 12 -404 59 -639 224 -1103
1046 -2022 2120 -2370 345 -111 610 -151 990 -150 507 1 915 94 1360 308 849
409 1464 1161 1699 2076 66 260 91 475 90 785 -1 506 -94 916 -308 1360 -469
974 -1383 1632 -2459 1771 -115 14 -515 27 -602 18z m435 -1288 c353 -57 585
-173 744 -370 107 -133 164 -302 173 -511 11 -268 -54 -465 -209 -630 -65 -70
-176 -150 -251 -181 -26 -10 -47 -22 -47 -25 0 -3 32 -13 72 -22 90 -22 221
-83 301 -141 265 -190 397 -515 358 -879 -28 -256 -127 -465 -298 -628 -157
-150 -348 -249 -601 -314 -227 -57 -243 -58 -975 -62 -607 -4 -683 -3 -727 12
-66 22 -114 76 -129 144 -15 70 -15 3406 0 3471 14 61 52 108 113 136 l51 25
660 -4 c563 -3 675 -6 765 -21z"/>
<path d="M2550 3991 l0 -491 258 0 c295 0 372 9 460 50 168 78 257 217 269
415 12 210 -64 367 -217 445 -118 60 -139 63 -467 68 l-303 4 0 -491z"/>
<path d="M2550 2399 l0 -541 373 5 c408 4 427 7 551 69 76 38 174 136 209 208
100 206 57 482 -98 629 -141 134 -313 171 -797 171 l-238 0 0 -541z"/>
</g>
</svg>
